<svg width="25" height="34" viewBox="0 0 25 34" fill="none" xmlns="http://www.w3.org/2000/svg">
<path d="M24.2057 28.7415L19.6175 22.4059C19.4104 22.1199 19.1296 21.961 18.8351 21.961H18.085C19.3551 19.7178 20.1099 16.8964 20.1099 13.8271C20.1099 6.52557 15.8254 0.609375 10.5376 0.609375C5.24985 0.609375 0.965332 6.52557 0.965332 13.8271C0.965332 21.1286 5.24985 27.0448 10.5376 27.0448C12.7604 27.0448 14.8037 26.0026 16.4282 24.2487V25.2845C16.4282 25.6912 16.5433 26.0789 16.7504 26.3648L21.3386 32.7004C21.7712 33.2978 22.4707 33.2978 22.8987 32.7004L24.2011 30.9021C24.6337 30.3047 24.6337 29.3388 24.2057 28.7415ZM10.5376 21.961C7.28395 21.961 4.64698 18.3262 4.64698 13.8271C4.64698 9.33433 7.27935 5.69311 10.5376 5.69311C13.7913 5.69311 16.4282 9.32797 16.4282 13.8271C16.4282 18.3198 13.7959 21.961 10.5376 21.961Z" fill="#E6E3E3"/>
</svg>
